<?xml version="1.0"?>
<svg xmlns="http://www.w3.org/2000/svg" width="441" height="441" viewBox="0 0 441 441" fill="none">
<path d="M315.708 281.197L305.646 252.602L292.395 214.95L282.81 187.701L270.261 152.04L255.684 110.619H184.979L173.693 142.693L163.631 171.288L113.656 313.303H160.289L174.918 271.85H245.636L233.087 236.188H187.415L197 208.94L217.021 152.04L220.33 142.622L223.64 152.04L280.36 313.27L280.373 313.303H327.005L315.708 281.197Z" fill="#FC5200"/>
<path d="M412.554 112.354C411.382 110.276 409.433 108.749 407.135 108.108C404.838 107.468 402.38 107.766 400.302 108.938C398.224 110.11 396.697 112.059 396.057 114.357C395.416 116.655 395.715 119.113 396.886 121.19C420.737 163.598 428.516 213.177 418.8 260.852C409.084 308.526 382.523 351.107 343.978 380.798C305.434 410.49 257.485 425.307 208.91 422.536C160.334 419.765 114.381 399.592 79.4635 365.709C44.5457 331.827 22.9989 286.502 18.7673 238.032C14.5357 189.562 27.9026 141.189 56.4209 101.769C84.9392 62.3483 126.701 34.5176 174.062 23.3712C221.422 12.2248 271.213 18.5083 314.319 41.0718C312.938 47.4306 313.855 54.0733 316.907 59.8204C319.958 65.5675 324.948 70.0473 330.989 72.4648C337.031 74.8824 343.733 75.0811 349.907 73.0257C356.081 70.9704 361.327 66.7939 364.714 61.2376C368.101 55.6814 369.409 49.1049 368.407 42.6754C367.405 36.2459 364.158 30.3793 359.241 26.1171C354.324 21.8549 348.056 19.4727 341.549 19.3934C335.043 19.3142 328.718 21.543 323.699 25.6841C276.847 0.841145 222.609 -6.27851 170.932 5.63068C119.255 17.5399 73.6038 47.6796 42.35 90.5226C11.0963 133.366 -3.66486 186.04 0.773858 238.885C5.21258 291.73 28.5536 341.204 66.5162 378.233C104.479 415.262 154.518 437.364 207.457 440.486C260.397 443.608 312.687 427.541 354.739 395.23C396.791 362.92 425.785 316.532 436.404 264.575C447.023 212.618 438.556 158.574 412.554 112.355V112.354Z" fill="#FC5200"/>
</svg>
